<svg xmlns="http://www.w3.org/2000/svg" viewBox="0 0 220 48" role="img" aria-labelledby="title">
  <title id="title">AI JobMatch</title>
  <rect width="48" height="48" rx="12" fill="#1f3b94"/>
  <path d="M15 17.5h18a3 3 0 0 1 3 3v13a3 3 0 0 1-3 3H15a3 3 0 0 1-3-3v-13a3 3 0 0 1 3-3Z" fill="none" stroke="#fff" stroke-width="2.5"/>
  <path d="M19 17.5v-3A2.5 2.5 0 0 1 21.5 12h5A2.5 2.5 0 0 1 29 14.5v3M12 25h24M21 25v3h6v-3" fill="none" stroke="#fff" stroke-width="2.5" stroke-linecap="round" stroke-linejoin="round"/>
  <text x="60" y="31" fill="#14213d" font-family="Inter, Arial, sans-serif" font-size="22" font-weight="700">AI JobMatch</text>
</svg>